# xmcd CD database file
#
# Track frame offsets:
#	150
#	4238
#	28103
#	55942
#	86550
#	101172
#	173603
#	180126
#	232429
#	267110
#	314455
#
# Disc length: 4882 seconds
#
# Revision: 0
# Processed by: cddbd v1.5.2PL0 Copyright (c) Steve Scherf et al.
# Submitted via: CDex 1.51
#
DISCID=8b13100b
DTITLE=DKV Trio - Live At The Hideout - 12/20/06
DYEAR=1900
DGENRE=Jazz
TTITLE0=Live At The Hideout - 12/20/06 - Set 1 - Track 1
TTITLE1=Live At The Hideout - 12/20/06 - Set 1 - Track 2
TTITLE2=Live At The Hideout - 12/20/06 - Set 1 - Track 3
TTITLE3=Live At The Hideout - 12/20/06 - Set 1 - Track 4
TTITLE4=Live At The Hideout - 12/20/06 - Set 1 - Track 5
TTITLE5=Live At The Hideout - 12/20/06 - Set 1 - Track 6
TTITLE6=Live At The Hideout - 12/20/06 - Set 2 - Track 1
TTITLE7=Live At The Hideout - 12/20/06 - Set 2 - Track 2
TTITLE8=Live At The Hideout - 12/20/06 - Set 2 - Track 3
TTITLE9=Live At The Hideout - 12/20/06 - Set 2 - Track 4
TTITLE10=Live At The Hideout - 12/20/06 - Set 2 - Track 5
EXTD=
EXTT0=
EXTT1=
EXTT2=
EXTT3=
EXTT4=
EXTT5=
EXTT6=
EXTT7=
EXTT8=
EXTT9=
EXTT10=
PLAYORDER=
